<?xml version="1.0" encoding="UTF-8" ?>
<!DOCTYPE svg PUBLIC "-//W3C//DTD SVG 1.1//EN" "http://www.w3.org/Graphics/SVG/1.1/DTD/svg11.dtd">
<svg width="159pt" height="159pt" viewBox="0 0 159 159" version="1.1" xmlns="http://www.w3.org/2000/svg">
<g id="#0c0c4fff">
<path fill="#0c0c4f" opacity="1.00" d=" M 67.15 1.17 C 81.93 -1.10 97.36 0.87 111.02 6.96 C 128.48 14.57 142.91 28.83 150.87 46.12 C 159.01 63.44 160.34 83.76 154.82 102.06 C 149.66 119.49 138.13 134.89 123.02 144.97 C 108.76 154.62 91.22 159.24 74.05 158.10 C 57.86 157.11 42.06 150.89 29.47 140.67 C 14.55 128.66 4.23 111.04 1.21 92.12 C -1.31 76.96 0.69 61.05 7.01 47.04 C 17.60 22.89 41.03 4.93 67.15 1.17 M 82.41 44.49 C 73.71 51.20 67.85 60.66 61.22 69.25 C 55.52 76.94 48.69 84.68 39.18 87.46 C 31.03 90.24 22.35 88.90 14.21 86.81 C 15.59 90.18 17.06 93.55 19.13 96.56 C 27.05 110.79 42.47 121.18 58.99 121.39 C 72.58 121.69 85.56 115.37 95.46 106.37 C 109.68 93.89 116.85 75.50 130.77 62.75 C 133.43 60.23 136.63 58.36 140.02 56.98 C 135.18 45.69 124.22 37.11 111.95 35.67 C 101.40 34.19 90.67 38.03 82.41 44.49 M 39.71 45.71 C 36.95 47.25 33.64 47.49 30.92 49.16 C 33.60 50.72 36.73 51.24 39.48 52.64 C 41.99 55.08 41.05 59.48 43.89 61.71 C 45.07 58.90 45.43 55.71 47.18 53.17 C 49.69 50.95 53.71 51.57 56.05 49.05 C 53.11 47.58 49.40 47.46 46.94 45.17 C 45.65 42.46 45.09 39.45 43.88 36.70 C 41.57 39.23 41.82 43.11 39.71 45.71 M 115.33 105.28 C 109.75 107.71 108.45 115.87 113.02 119.90 C 117.49 124.57 126.30 122.20 127.83 115.92 C 130.43 108.89 121.90 101.51 115.33 105.28 Z" />
</g>
<g id="#fafafaff">
<path fill="#fafafa" opacity="1.00" d=" M 82.41 44.49 C 90.67 38.03 101.40 34.19 111.95 35.67 C 124.22 37.11 135.18 45.69 140.02 56.98 C 130.73 55.31 120.56 53.33 111.68 57.66 C 103.85 61.85 99.72 70.11 95.34 77.41 C 88.02 89.29 78.65 100.50 66.07 107.00 C 57.02 111.65 46.07 113.15 36.38 109.61 C 29.40 107.23 23.68 102.23 19.13 96.56 C 17.06 93.55 15.59 90.18 14.21 86.81 C 22.35 88.90 31.03 90.24 39.18 87.46 C 48.69 84.68 55.52 76.94 61.22 69.25 C 67.85 60.66 73.71 51.20 82.41 44.49 Z" />
<path fill="#fafafa" opacity="1.00" d=" M 39.71 45.71 C 41.82 43.11 41.57 39.23 43.88 36.70 C 45.09 39.45 45.65 42.46 46.94 45.17 C 49.40 47.46 53.11 47.58 56.05 49.05 C 53.71 51.57 49.69 50.95 47.18 53.17 C 45.43 55.71 45.07 58.90 43.89 61.71 C 41.05 59.48 41.99 55.08 39.48 52.64 C 36.73 51.24 33.60 50.72 30.92 49.16 C 33.64 47.49 36.95 47.25 39.71 45.71 Z" />
</g>
<g id="#e6778dff">
<path fill="#e6778d" opacity="1.00" d=" M 111.68 57.66 C 120.56 53.33 130.73 55.31 140.02 56.98 C 136.63 58.36 133.43 60.23 130.77 62.75 C 116.85 75.50 109.68 93.89 95.46 106.37 C 85.56 115.37 72.58 121.69 58.99 121.39 C 42.47 121.18 27.05 110.79 19.13 96.56 C 23.68 102.23 29.40 107.23 36.38 109.61 C 46.07 113.15 57.02 111.65 66.07 107.00 C 78.65 100.50 88.02 89.29 95.34 77.41 C 99.72 70.11 103.85 61.85 111.68 57.66 Z" />
<path fill="#e6778d" opacity="1.00" d=" M 115.33 105.28 C 121.90 101.51 130.43 108.89 127.83 115.92 C 126.30 122.20 117.49 124.57 113.02 119.90 C 108.45 115.87 109.75 107.71 115.33 105.28 Z" />
</g>
</svg>
