<svg width="251" height="251" viewBox="0 0 251 251" fill="none" xmlns="http://www.w3.org/2000/svg">
<path fill-rule="evenodd" clip-rule="evenodd" d="M251 125.5C251 194.812 194.813 251 125.502 251C56.19 251 0 194.812 0 125.5C0 56.188 56.19 0 125.502 0C194.813 0 251 56.188 251 125.5Z" fill="#29296E"/>
<path fill-rule="evenodd" clip-rule="evenodd" d="M184.25 91.992L181.081 82.202C180.437 80.21 178.865 78.661 176.867 78.05L167.028 75.024C165.666 74.608 165.655 72.687 167.006 72.249L176.8 69.08C178.788 68.436 180.337 66.864 180.952 64.865L183.974 55.027C184.39 53.668 186.311 53.654 186.749 55.008L189.918 64.799C190.562 66.787 192.134 68.336 194.132 68.951L203.97 71.973C205.332 72.392 205.347 74.31 203.992 74.748L194.198 77.917C192.211 78.561 190.661 80.137 190.047 82.135L187.025 91.97C186.609 93.332 184.688 93.347 184.25 91.992Z" fill="#FAFAFA"/>
<path fill-rule="evenodd" clip-rule="evenodd" d="M11 123.548C13.9916 117.642 19.9079 113.192 26.055 110.38C32.264 107.597 39.091 105.889 45.795 105.335C59.33 104.103 72.515 106.384 84.526 110.327C90.714 112.185 96.251 114.765 101.97 117.372C104.75 118.72 107.362 120.248 110.053 121.724L117.486 126.065C125.646 131.106 133.558 135.57 140.991 139.038C148.442 142.476 155.176 144.802 161.523 145.989C167.871 147.192 174.322 147.177 182.256 145.342C190.127 143.548 198.983 139.679 208.24 134.716C217.553 129.75 227.104 123.66 238 117.709C236.907 130.147 233.414 141.81 227.959 153.072C222.369 164.199 214.595 175.053 203.26 183.843C192.141 192.704 176.871 198.88 161.326 199.809C145.774 200.868 130.979 197.415 118.392 192.221C105.757 186.951 94.839 180.026 85.162 172.382C82.49 170.27 81.055 169.071 79.082 167.39L73.571 162.525C69.858 159.596 66.261 156.094 62.585 153.192C55.253 147.016 47.999 140.829 40.046 135.465C36.036 132.739 31.9 130.211 27.21 127.971C24.88 126.889 22.405 125.881 19.7481 125.087C17.0278 124.192 14.2629 123.66 11 123.548Z" fill="#FF4F0A"/>
<path fill-rule="evenodd" clip-rule="evenodd" d="M11 123.712C12.5274 111.013 18.4474 99.101 27.935 88.962C37.374 78.92 52.12 71.179 68.483 70.153C76.558 69.614 84.757 70.514 92.293 72.602C99.796 74.684 106.827 77.716 113.164 81.288C116.33 83.083 119.292 85.045 122.242 87.026L130.106 92.98L142.381 102.665C150.348 109.009 157.952 114.878 164.979 119.724C172.074 124.578 178.116 128.123 183.888 130.201C189.607 132.468 196.831 133.048 206.382 130.647C211.124 129.554 216.07 127.559 221.347 125.396C226.595 123.18 232.043 120.538 238 117.918C237.283 124.303 235.986 130.662 233.522 136.605C231.155 142.629 228.037 148.523 223.678 154.02C221.448 156.696 219.058 159.387 216.271 161.869C213.484 164.293 210.396 166.593 206.984 168.611C200.18 172.555 192.108 175.435 183.828 176.461C175.548 177.501 167.235 176.981 159.665 175.375C152.054 173.814 145.12 171.298 138.754 168.392C126.066 162.49 115.453 155.072 106.069 147.219C101.357 143.298 96.938 139.202 92.754 135.044L87.811 130.082C86.321 128.644 84.816 127.198 83.326 125.875C77.32 120.564 71.746 116.506 65.607 113.975C59.512 111.325 51.712 110.236 42.142 112.027C32.61 113.8 22.152 117.922 11 123.712Z" fill="#FAFAFA"/>
<path fill-rule="evenodd" clip-rule="evenodd" d="M62 189C62 192.865 58.864 196 54.998 196C51.132 196 48 192.865 48 189C48 185.135 51.132 182 54.998 182C58.864 182 62 185.135 62 189Z" fill="#FAFAFA"/>
<path fill-rule="evenodd" clip-rule="evenodd" d="M62 189C62 192.865 58.864 196 54.998 196C51.132 196 48 192.865 48 189C48 185.135 51.132 182 54.998 182C58.864 182 62 185.135 62 189Z" fill="#FAFAFA"/>
</svg>
