<?xml version="1.0" encoding="UTF-8" ?>
<!DOCTYPE svg PUBLIC "-//W3C//DTD SVG 1.1//EN" "http://www.w3.org/Graphics/SVG/1.1/DTD/svg11.dtd">
<svg width="69pt" height="84pt" viewBox="0 0 69 84" version="1.1" xmlns="http://www.w3.org/2000/svg">
<g id="#fba52bff">
<path fill="#fba52b" opacity="1.00" d=" M 21.87 7.35 C 25.25 1.29 33.30 -1.55 39.70 1.22 C 42.73 2.35 45.07 4.72 46.76 7.42 C 42.22 7.39 37.99 10.53 37.12 15.06 C 36.79 17.56 33.41 15.96 31.76 16.34 C 31.42 11.24 26.85 7.47 21.87 7.35 Z" />
<path fill="#fba52b" opacity="1.00" d=" M 25.47 18.66 C 35.71 16.20 47.01 18.17 55.63 24.27 C 59.35 26.99 62.44 30.72 64.07 35.05 C 65.02 36.75 62.86 38.64 61.24 37.73 C 52.82 35.25 44.45 32.62 36.04 30.13 C 35.04 29.83 33.96 29.55 32.93 29.94 C 24.24 32.44 15.65 35.29 6.97 37.81 C 5.42 38.49 3.51 36.67 4.38 35.15 C 7.62 26.19 16.55 20.71 25.47 18.66 Z" />
<path fill="#fba52b" opacity="1.00" d=" M 4.97 39.91 C 14.69 37.12 24.27 33.80 34.06 31.29 C 43.79 33.70 53.31 37.04 62.97 39.76 C 65.91 40.28 68.71 42.76 68.37 45.96 C 68.38 54.64 68.38 63.32 68.36 71.99 C 68.51 78.15 62.91 83.44 56.90 83.67 C 52.83 84.26 48.62 82.91 44.63 84.00 L 44.14 84.00 C 43.42 79.12 42.94 73.98 44.08 69.14 C 46.17 63.68 52.96 63.52 56.61 59.59 C 58.71 57.54 61.12 53.94 58.77 51.20 C 55.27 49.57 51.17 49.96 47.48 50.64 C 44.13 51.32 40.78 53.05 39.20 56.22 C 37.36 59.86 37.97 64.13 36.91 67.99 C 35.81 70.14 32.23 70.05 31.45 67.68 C 30.33 63.14 31.22 57.80 28.01 53.97 C 23.32 50.31 16.82 49.47 11.09 50.54 C 8.34 51.10 8.15 54.58 9.49 56.55 C 11.77 61.46 17.44 62.71 21.57 65.47 C 25.83 68.65 25.00 74.39 25.03 79.03 C 24.81 80.66 25.64 83.79 23.03 83.67 C 16.97 83.46 9.99 85.12 4.77 81.15 C 2.14 79.33 0.70 76.34 0.01 73.30 L 0.00 79.09 L 0.00 45.27 C 0.19 42.55 2.39 40.47 4.97 39.91 Z" />
</g>
</svg>
