<?xml version="1.0" encoding="UTF-8" ?>
<!DOCTYPE svg PUBLIC "-//W3C//DTD SVG 1.1//EN" "http://www.w3.org/Graphics/SVG/1.1/DTD/svg11.dtd">
<svg width="85pt" height="94pt" viewBox="0 0 85 94" version="1.1" xmlns="http://www.w3.org/2000/svg">
<g id="#4e5ee4ff">
<path fill="#4e5ee4" opacity="1.00" d=" M 0.00 0.00 L 85.00 0.00 L 85.00 -0.32 C 80.19 8.02 75.06 16.18 70.26 24.53 C 46.84 24.52 23.42 24.52 0.00 24.52 L 0.00 0.00 Z" />
</g>
<g id="#63b0f9ff">
<path fill="#63b0f9" opacity="1.00" d=" M 49.82 27.53 C 56.09 26.97 62.40 27.44 68.68 27.27 C 55.27 49.53 42.06 71.92 28.36 94.00 L 0.15 94.00 C 11.05 75.39 22.37 57.02 33.46 38.51 C 36.86 32.58 43.03 28.41 49.82 27.53 Z" />
</g>
<g id="#63d2f9ff">
<path fill="#63d2f9" opacity="1.00" d=" M 40.85 78.90 C 44.63 72.76 51.83 69.10 58.99 69.30 C 67.66 69.35 76.33 69.23 85.00 69.38 L 85.00 94.00 L 32.02 94.00 C 34.68 88.81 37.84 83.89 40.85 78.90 Z" />
</g>
</svg>
